<?xml version="1.0" standalone="no"?>
<!DOCTYPE svg PUBLIC "-//W3C//DTD SVG 20010904//EN"
 "http://www.w3.org/TR/2001/REC-SVG-20010904/DTD/svg10.dtd">
<svg version="1.0" xmlns="http://www.w3.org/2000/svg"
 width="500.000000pt" height="500.000000pt" viewBox="0 0 500.000000 500.000000"
 preserveAspectRatio="xMidYMid meet">

<g transform="translate(0.000000,500.000000) scale(0.100000,-0.100000)"
fill="#000000" stroke="none">
<path d="M2301 3604 c-369 -54 -655 -205 -751 -396 l-30 -61 0 -559 0 -558
1085 0 1085 0 0 534 c0 602 0 604 -75 707 -117 158 -401 290 -723 334 -140 19
-459 18 -591 -1z m489 -24 c397 -36 736 -193 831 -387 l24 -48 3 -542 2 -543
-1050 0 -1051 0 3 543 3 542 27 50 c99 186 402 337 753 375 61 6 119 13 130
14 49 8 220 5 325 -4z"/>
<path d="M2260 3294 l0 -155 73 40 74 41 54 -48 c93 -82 77 -80 175 -18 48 31
94 56 102 56 9 0 44 -16 79 -35 l63 -36 0 156 0 155 -310 0 -310 0 0 -156z
m373 96 c71 -56 46 -170 -40 -186 -40 -7 -88 10 -108 40 -8 11 -15 40 -15 64
0 86 96 134 163 82z"/>
<path d="M2538 3349 c-25 -14 -24 -75 1 -89 41 -21 84 2 84 46 0 44 -45 67
-85 43z"/>
<path d="M2665 3114 c-38 -25 -71 -48 -72 -52 -1 -4 31 -35 71 -69 l73 -63 72
0 71 0 0 78 0 77 -67 35 c-37 19 -69 36 -72 37 -3 2 -37 -18 -76 -43z"/>
<path d="M2325 3116 l-60 -33 -3 -76 -3 -77 200 0 201 0 -43 38 c-100 92 -210
182 -220 182 -7 0 -39 -15 -72 -34z"/>
<path d="M3006 3048 c-18 -69 7 -149 55 -174 20 -10 31 -26 39 -57 6 -23 15
-57 20 -76 5 -19 7 -37 5 -39 -2 -3 -21 -6 -41 -8 -20 -1 -38 -5 -41 -8 -5 -5
44 -245 58 -283 4 -12 18 -23 31 -25 20 -3 23 -9 26 -54 3 -48 0 -56 -46 -115
-48 -63 -49 -64 -98 -64 l-48 0 -19 67 -20 67 26 23 c23 20 27 32 29 95 1 40
-1 75 -4 79 -4 3 -19 4 -33 0 -22 -6 -25 -12 -25 -49 0 -81 17 -78 -355 -75
l-330 3 -3 55 c-3 57 -12 70 -49 70 -22 0 -23 -4 -23 -79 0 -73 2 -81 25 -99
30 -24 30 -25 8 -102 l-16 -60 -54 0 c-48 0 -53 2 -53 23 0 12 -1 176 -3 364
l-2 342 55 3 c52 3 55 4 53 28 0 14 -14 52 -30 85 l-28 60 -71 3 -70 3 -33
-76 c-18 -41 -31 -82 -27 -90 4 -11 20 -15 56 -15 l50 0 0 -365 0 -365 -56 0
c-47 0 -55 -3 -52 -17 3 -17 46 -18 713 -21 546 -2 710 1 716 10 11 17 1 28
-24 28 -15 0 -37 20 -69 64 -44 58 -48 67 -48 119 0 54 1 57 24 57 15 0 27 7
30 18 14 46 56 248 56 268 0 26 -28 38 -71 32 -22 -3 -24 0 -22 36 2 31 11 46
42 75 22 21 41 50 46 69 7 34 -1 88 -14 97 -5 2 -29 -9 -54 -25 -54 -37 -75
-79 -60 -121 8 -21 8 -40 1 -67 l-10 -37 -20 75 c-11 41 -19 82 -18 90 11 97
-18 151 -96 174 -17 5 -23 1 -28 -16z m-111 -815 c7 -23 15 -53 19 -67 l6 -26
-344 0 c-190 0 -347 3 -349 8 -2 4 5 35 15 70 l19 62 311 -2 311 -3 12 -42z
m265 -63 c0 -20 -25 -38 -37 -26 -5 5 24 46 34 46 1 0 3 -9 3 -20z m70 -22 c0
-4 -7 -8 -15 -8 -10 0 -15 10 -15 28 1 26 1 26 15 8 8 -11 15 -23 15 -28z"/>
<path d="M2287 2643 c-4 -3 -7 -39 -7 -80 l0 -73 129 0 c145 0 141 -2 141 80
0 82 4 80 -134 80 -68 0 -126 -3 -129 -7z"/>
<path d="M2607 2643 c-4 -3 -7 -39 -7 -80 l0 -73 129 0 c142 0 141 0 141 65 0
18 -3 47 -6 64 l-6 31 -123 0 c-67 0 -125 -3 -128 -7z"/>
<path d="M2280 2420 c0 -20 5 -20 132 -18 117 3 133 5 136 21 3 15 -8 17 -132
17 -130 0 -136 -1 -136 -20z"/>
<path d="M2600 2420 c0 -19 7 -20 129 -20 120 0 129 1 134 20 5 19 0 20 -129
20 -127 0 -134 -1 -134 -20z"/>
<path d="M1300 1795 c0 -60 3 -75 15 -75 11 0 15 12 15 48 l1 47 20 -27 c25
-34 35 -35 60 -5 l18 22 1 -42 c0 -31 4 -43 15 -43 12 0 15 14 15 69 0 39 -4
73 -10 76 -5 3 -22 -12 -38 -34 l-29 -40 -32 39 c-18 22 -36 40 -41 40 -6 0
-10 -34 -10 -75z"/>
<path d="M1537 1863 c-4 -3 -7 -37 -7 -75 l0 -68 50 0 c38 0 50 4 50 15 0 10
-11 15 -35 15 -24 0 -35 5 -35 15 0 10 10 15 30 15 20 0 30 5 30 15 0 10 -10
15 -30 15 -20 0 -30 5 -30 15 0 10 10 15 30 15 20 0 30 5 30 15 0 11 -11 15
-38 15 -21 0 -42 -3 -45 -7z"/>
<path d="M1693 1855 c-8 -23 3 -103 17 -120 16 -20 64 -19 84 1 20 20 23 138
4 132 -8 -3 -15 -28 -18 -59 -4 -42 -9 -55 -24 -57 -26 -5 -36 15 -36 71 0 46
-14 63 -27 32z"/>
<path d="M1898 1863 c-15 -4 -17 -15 -15 -74 l2 -69 38 0 c21 0 47 5 58 10 20
11 26 45 9 55 -7 4 -7 12 0 24 18 34 -38 67 -92 54z m67 -33 c7 -11 -35 -31
-47 -23 -5 2 -8 11 -8 19 0 16 45 20 55 4z m5 -64 c0 -16 -34 -31 -50 -21 -22
14 -10 35 20 35 19 0 30 -5 30 -14z"/>
<path d="M2066 1863 c-3 -3 -6 -37 -6 -75 l0 -68 50 0 c38 0 50 4 50 15 0 10
-11 15 -35 15 l-35 0 0 54 c0 51 -9 74 -24 59z"/>
<path d="M2225 1862 c-3 -3 -5 -36 -5 -74 l0 -68 45 0 c33 0 45 4 45 15 0 10
-10 15 -30 15 -20 0 -30 5 -30 15 0 9 9 15 25 15 16 0 25 6 25 15 0 9 -9 15
-25 15 -16 0 -25 6 -25 15 0 10 10 15 31 15 45 0 31 25 -14 26 -20 1 -39 -1
-42 -4z"/>
<path d="M2466 1863 c-3 -4 -6 -37 -6 -75 0 -54 3 -68 15 -68 9 0 15 9 15 25
0 20 5 25 25 25 16 0 25 6 25 15 0 9 -9 15 -25 15 -18 0 -25 5 -25 20 0 16 7
20 31 20 44 0 32 24 -13 27 -20 1 -38 -1 -42 -4z"/>
<path d="M2620 1811 c0 -66 15 -91 55 -91 44 0 60 28 56 100 -3 55 -21 62 -21
8 0 -26 -3 -53 -6 -62 -9 -22 -54 -21 -56 2 -4 41 -5 58 -7 80 0 12 -5 22 -11
22 -6 0 -10 -26 -10 -59z"/>
<path d="M2810 1795 c0 -60 3 -75 15 -75 9 0 15 9 15 25 0 14 4 25 9 25 5 0
16 -11 25 -25 23 -35 50 -35 34 0 -9 19 -9 28 0 37 16 16 15 53 -2 67 -8 7
-33 14 -55 17 l-41 5 0 -76z m75 20 c0 -13 -8 -21 -22 -23 -19 -3 -23 1 -23
23 0 22 4 26 23 23 14 -2 22 -10 22 -23z"/>
<path d="M2990 1795 c0 -59 3 -75 14 -75 10 0 16 14 18 43 l3 42 30 -42 c44
-63 55 -57 55 32 0 61 -3 73 -14 69 -9 -3 -16 -22 -18 -47 l-3 -41 -28 41
c-47 68 -57 64 -57 -22z"/>
<path d="M3191 1848 c-4 -12 -9 -45 -10 -75 -2 -42 1 -53 13 -53 13 0 16 14
16 75 0 77 -5 91 -19 53z"/>
<path d="M3280 1854 c0 -8 9 -14 20 -14 18 0 20 -7 20 -60 0 -47 3 -60 15 -60
12 0 15 13 15 60 0 58 1 60 26 60 16 0 24 5 21 13 -6 18 -117 19 -117 1z"/>
<path d="M3548 1813 c-3 -54 -5 -58 -28 -58 -23 0 -25 4 -28 53 -2 37 -7 52
-18 52 -21 0 -20 -103 2 -124 22 -22 60 -20 85 5 16 16 19 30 17 71 -4 74 -26
75 -30 1z"/>
<path d="M3656 1863 c-3 -3 -6 -37 -6 -75 0 -54 3 -68 15 -68 9 0 15 9 15 25
0 14 6 25 13 25 8 0 19 -11 25 -25 6 -14 18 -25 27 -25 18 0 19 12 3 28 -10
10 -10 17 0 32 16 25 15 55 0 68 -16 13 -83 24 -92 15z m69 -48 c0 -13 -8 -21
-22 -23 -19 -3 -23 1 -23 23 0 22 4 26 23 23 14 -2 22 -10 22 -23z"/>
<path d="M3835 1862 c-3 -3 -5 -36 -5 -74 l0 -68 51 0 c57 0 66 23 11 28 -42
4 -44 32 -2 32 20 0 30 5 30 15 0 10 -10 15 -30 15 -42 0 -40 28 3 32 17 2 31
8 30 13 -2 10 -79 16 -88 7z"/>
<path d="M1813 1535 c0 -27 2 -40 4 -27 3 15 11 22 28 22 17 0 25 -7 28 -22 2
-13 4 0 4 27 0 28 -2 40 -4 28 -3 -16 -11 -23 -28 -23 -17 0 -25 7 -28 23 -2
12 -4 0 -4 -28z"/>
<path d="M1932 1568 c-21 -21 -14 -57 14 -70 31 -14 57 -1 62 31 7 42 -46 69
-76 39z m66 -27 c5 -31 -11 -45 -42 -37 -19 5 -26 13 -26 30 0 30 9 38 40 34
18 -2 26 -10 28 -27z"/>
<path d="M2052 1535 c1 -43 2 -45 5 -12 l4 38 20 -23 c19 -23 19 -23 31 -3 12
19 13 18 19 -15 6 -32 6 -31 7 15 l1 50 -21 -28 -21 -29 -23 29 -23 28 1 -50z"/>
<path d="M2203 1573 c9 -2 23 -2 30 0 6 3 -1 5 -18 5 -16 0 -22 -2 -12 -5z"/>
<path d="M2330 1571 c0 -5 10 -7 21 -4 15 4 27 0 35 -12 8 -11 14 -14 14 -9 0
17 -23 34 -47 34 -13 0 -23 -4 -23 -9z"/>
<path d="M2440 1535 c0 -44 0 -45 33 -44 30 2 30 2 5 6 -34 5 -37 30 -5 36
l22 4 -22 2 c-13 0 -23 7 -23 15 0 8 10 17 23 19 19 4 18 4 -5 6 -27 1 -28 -1
-28 -44z"/>
<path d="M2542 1568 c-28 -28 -7 -79 33 -77 17 1 16 2 -5 8 -19 5 -25 13 -25
36 0 27 3 30 32 30 17 0 29 3 26 7 -7 12 -48 9 -61 -4z"/>
<path d="M2660 1559 c-7 -11 -9 -23 -7 -26 3 -2 8 5 12 16 8 26 50 28 64 4 6
-10 11 -13 11 -7 1 35 -63 46 -80 13z"/>
<path d="M2780 1533 c0 -25 3 -43 7 -40 3 4 6 23 5 43 -1 33 1 36 23 32 13 -3
22 -1 19 3 -3 5 -16 9 -30 9 -22 0 -24 -4 -24 -47z"/>
<path d="M2907 1567 c-3 -8 1 -14 9 -14 16 0 19 13 5 21 -5 3 -11 0 -14 -7z"/>
<path d="M3003 1573 c9 -2 25 -2 35 0 9 3 1 5 -18 5 -19 0 -27 -2 -17 -5z"/>
<path d="M3091 1564 c0 -11 3 -14 6 -6 3 7 2 16 -1 19 -3 4 -6 -2 -5 -13z"/>
<path d="M3152 1568 c-28 -28 -7 -79 33 -77 17 1 16 2 -5 8 -19 5 -25 13 -25
36 0 27 3 30 32 30 17 0 29 3 26 7 -7 12 -48 9 -61 -4z"/>
<path d="M3270 1574 c0 -5 13 -23 28 -39 30 -34 27 -25 -6 19 -12 16 -22 25
-22 20z"/>
<path d="M3221 1543 c-1 -6 -4 -20 -7 -30 -5 -17 -5 -17 6 0 6 10 9 23 6 30
-3 9 -5 9 -5 0z"/>
<path d="M2198 1533 c6 -2 18 -2 25 0 6 3 1 5 -13 5 -14 0 -19 -2 -12 -5z"/>
<path d="M2331 1518 c-1 -23 3 -28 22 -27 15 1 17 3 5 6 -9 2 -19 14 -21 26
-4 18 -5 17 -6 -5z"/>
<path d="M2823 1532 c-8 -5 -8 -12 2 -25 12 -17 13 -16 11 7 0 15 -1 26 -1 26
0 0 -5 -4 -12 -8z"/>
<path d="M2888 1525 c-4 -17 0 -20 29 -20 36 0 38 2 23 25 -6 10 -10 11 -10 3
0 -17 -27 -17 -32 -1 -3 7 -7 4 -10 -7z"/>
<path d="M2386 1513 c-6 -14 -5 -15 5 -6 7 7 10 15 7 18 -3 3 -9 -2 -12 -12z"/>
<path d="M2727 1515 c-7 -18 -38 -20 -55 -3 -9 9 -12 9 -12 0 0 -20 50 -26 68
-9 9 9 13 19 10 22 -3 3 -8 -1 -11 -10z"/>
<path d="M3091 1514 c0 -11 3 -14 6 -6 3 7 2 16 -1 19 -3 4 -6 -2 -5 -13z"/>
<path d="M2203 1493 c9 -2 23 -2 30 0 6 3 -1 5 -18 5 -16 0 -22 -2 -12 -5z"/>
</g>
</svg>
